<mxfile host="app.diagrams.net" modified="2022-07-07T07:39:19.763Z" agent="5.0 (Windows NT 10.0; Win64; x64) AppleWebKit/537.36 (KHTML, like Gecko) Chrome/100.0.4896.127 Safari/537.36" etag="JIx_AOS61Pyh5AORJlcW" version="20.0.4" type="github">
  <diagram id="C5RBs43oDa-KdzZeNtuy" name="Page-1">
    <mxGraphModel dx="1658" dy="917" grid="1" gridSize="10" guides="1" tooltips="1" connect="1" arrows="1" fold="1" page="1" pageScale="1" pageWidth="827" pageHeight="1169" math="0" shadow="0">
      <root>
        <mxCell id="WIyWlLk6GJQsqaUBKTNV-0" />
        <mxCell id="WIyWlLk6GJQsqaUBKTNV-1" parent="WIyWlLk6GJQsqaUBKTNV-0" />
        <mxCell id="6fEqxgRCDidKm28uenut-7" value="Continuous Integration with Github Actions" style="rounded=1;whiteSpace=wrap;html=1;fontSize=12;glass=0;strokeWidth=1;shadow=0;labelPosition=center;verticalLabelPosition=top;align=center;verticalAlign=bottom;" vertex="1" parent="WIyWlLk6GJQsqaUBKTNV-1">
          <mxGeometry x="470" y="40" width="430" height="130" as="geometry" />
        </mxCell>
        <mxCell id="6fEqxgRCDidKm28uenut-8" value="Continuous Deployment with Azure Devops" style="rounded=1;whiteSpace=wrap;html=1;fontSize=12;glass=0;strokeWidth=1;shadow=0;labelPosition=center;verticalLabelPosition=top;align=center;verticalAlign=bottom;" vertex="1" parent="WIyWlLk6GJQsqaUBKTNV-1">
          <mxGeometry x="470" y="210" width="430" height="260" as="geometry" />
        </mxCell>
        <mxCell id="6fEqxgRCDidKm28uenut-17" style="edgeStyle=orthogonalEdgeStyle;rounded=0;orthogonalLoop=1;jettySize=auto;html=1;entryX=0;entryY=0.5;entryDx=0;entryDy=0;" edge="1" parent="WIyWlLk6GJQsqaUBKTNV-1" source="WIyWlLk6GJQsqaUBKTNV-3" target="6fEqxgRCDidKm28uenut-24">
          <mxGeometry relative="1" as="geometry">
            <Array as="points">
              <mxPoint x="340" y="105" />
            </Array>
          </mxGeometry>
        </mxCell>
        <mxCell id="6fEqxgRCDidKm28uenut-21" value="On Commit" style="edgeLabel;html=1;align=center;verticalAlign=middle;resizable=0;points=[];" vertex="1" connectable="0" parent="6fEqxgRCDidKm28uenut-17">
          <mxGeometry x="-0.0974" y="1" relative="1" as="geometry">
            <mxPoint as="offset" />
          </mxGeometry>
        </mxCell>
        <mxCell id="6fEqxgRCDidKm28uenut-40" style="edgeStyle=orthogonalEdgeStyle;rounded=0;orthogonalLoop=1;jettySize=auto;html=1;entryX=0;entryY=0.5;entryDx=0;entryDy=0;" edge="1" parent="WIyWlLk6GJQsqaUBKTNV-1" source="WIyWlLk6GJQsqaUBKTNV-3" target="6fEqxgRCDidKm28uenut-2">
          <mxGeometry relative="1" as="geometry">
            <Array as="points">
              <mxPoint x="340" y="300" />
            </Array>
          </mxGeometry>
        </mxCell>
        <mxCell id="WIyWlLk6GJQsqaUBKTNV-3" value="Github Repository&lt;br&gt;udacity-devops-second" style="rounded=1;whiteSpace=wrap;html=1;fontSize=12;glass=0;strokeWidth=1;shadow=0;" parent="WIyWlLk6GJQsqaUBKTNV-1" vertex="1">
          <mxGeometry x="280" y="170" width="120" height="60" as="geometry" />
        </mxCell>
        <mxCell id="6fEqxgRCDidKm28uenut-36" value="Host" style="edgeStyle=orthogonalEdgeStyle;rounded=0;orthogonalLoop=1;jettySize=auto;html=1;entryX=0.5;entryY=0;entryDx=0;entryDy=0;" edge="1" parent="WIyWlLk6GJQsqaUBKTNV-1" source="6fEqxgRCDidKm28uenut-4" target="6fEqxgRCDidKm28uenut-6">
          <mxGeometry relative="1" as="geometry" />
        </mxCell>
        <mxCell id="6fEqxgRCDidKm28uenut-4" value="Azure App Service" style="rounded=1;whiteSpace=wrap;html=1;fontSize=12;glass=0;strokeWidth=1;shadow=0;" vertex="1" parent="WIyWlLk6GJQsqaUBKTNV-1">
          <mxGeometry x="650" y="510" width="120" height="60" as="geometry" />
        </mxCell>
        <mxCell id="6fEqxgRCDidKm28uenut-6" value="x.Azurewebsites.com" style="rounded=1;whiteSpace=wrap;html=1;fontSize=12;glass=0;strokeWidth=1;shadow=0;" vertex="1" parent="WIyWlLk6GJQsqaUBKTNV-1">
          <mxGeometry x="630" y="620" width="160" height="60" as="geometry" />
        </mxCell>
        <mxCell id="6fEqxgRCDidKm28uenut-10" value="Azure Artifactory" style="rounded=1;whiteSpace=wrap;html=1;fontSize=12;glass=0;strokeWidth=1;shadow=0;" vertex="1" parent="WIyWlLk6GJQsqaUBKTNV-1">
          <mxGeometry x="960" y="320" width="120" height="60" as="geometry" />
        </mxCell>
        <mxCell id="6fEqxgRCDidKm28uenut-11" value="VM with installed pipeline Runner" style="rounded=1;whiteSpace=wrap;html=1;fontSize=12;glass=0;strokeWidth=1;shadow=0;labelPosition=center;verticalLabelPosition=top;align=center;verticalAlign=bottom;" vertex="1" parent="WIyWlLk6GJQsqaUBKTNV-1">
          <mxGeometry x="625" y="260" width="165" height="180" as="geometry" />
        </mxCell>
        <mxCell id="6fEqxgRCDidKm28uenut-41" style="edgeStyle=orthogonalEdgeStyle;rounded=0;orthogonalLoop=1;jettySize=auto;html=1;" edge="1" parent="WIyWlLk6GJQsqaUBKTNV-1" source="6fEqxgRCDidKm28uenut-2" target="6fEqxgRCDidKm28uenut-12">
          <mxGeometry relative="1" as="geometry" />
        </mxCell>
        <mxCell id="6fEqxgRCDidKm28uenut-2" value="Azure Pipelines" style="rounded=1;whiteSpace=wrap;html=1;fontSize=12;glass=0;strokeWidth=1;shadow=0;" vertex="1" parent="WIyWlLk6GJQsqaUBKTNV-1">
          <mxGeometry x="490" y="270" width="120" height="60" as="geometry" />
        </mxCell>
        <mxCell id="6fEqxgRCDidKm28uenut-33" style="edgeStyle=orthogonalEdgeStyle;rounded=0;orthogonalLoop=1;jettySize=auto;html=1;entryX=0.5;entryY=0;entryDx=0;entryDy=0;" edge="1" parent="WIyWlLk6GJQsqaUBKTNV-1" source="6fEqxgRCDidKm28uenut-12" target="6fEqxgRCDidKm28uenut-10">
          <mxGeometry relative="1" as="geometry" />
        </mxCell>
        <mxCell id="6fEqxgRCDidKm28uenut-37" value="Upload result" style="edgeLabel;html=1;align=center;verticalAlign=middle;resizable=0;points=[];" vertex="1" connectable="0" parent="6fEqxgRCDidKm28uenut-33">
          <mxGeometry x="0.3143" y="-4" relative="1" as="geometry">
            <mxPoint x="-64" y="-4" as="offset" />
          </mxGeometry>
        </mxCell>
        <mxCell id="6fEqxgRCDidKm28uenut-34" style="edgeStyle=orthogonalEdgeStyle;rounded=0;orthogonalLoop=1;jettySize=auto;html=1;" edge="1" parent="WIyWlLk6GJQsqaUBKTNV-1" source="6fEqxgRCDidKm28uenut-12" target="6fEqxgRCDidKm28uenut-13">
          <mxGeometry relative="1" as="geometry" />
        </mxCell>
        <mxCell id="6fEqxgRCDidKm28uenut-12" value="Pipeline: Build" style="rounded=1;whiteSpace=wrap;html=1;fontSize=12;glass=0;strokeWidth=1;shadow=0;" vertex="1" parent="WIyWlLk6GJQsqaUBKTNV-1">
          <mxGeometry x="650" y="270" width="120" height="60" as="geometry" />
        </mxCell>
        <mxCell id="6fEqxgRCDidKm28uenut-35" style="edgeStyle=orthogonalEdgeStyle;rounded=0;orthogonalLoop=1;jettySize=auto;html=1;entryX=0.5;entryY=0;entryDx=0;entryDy=0;" edge="1" parent="WIyWlLk6GJQsqaUBKTNV-1" source="6fEqxgRCDidKm28uenut-13" target="6fEqxgRCDidKm28uenut-4">
          <mxGeometry relative="1" as="geometry" />
        </mxCell>
        <mxCell id="6fEqxgRCDidKm28uenut-13" value="Pipeline: Deploy" style="rounded=1;whiteSpace=wrap;html=1;fontSize=12;glass=0;strokeWidth=1;shadow=0;" vertex="1" parent="WIyWlLk6GJQsqaUBKTNV-1">
          <mxGeometry x="650" y="360" width="120" height="60" as="geometry" />
        </mxCell>
        <mxCell id="6fEqxgRCDidKm28uenut-15" style="edgeStyle=orthogonalEdgeStyle;rounded=0;orthogonalLoop=1;jettySize=auto;html=1;" edge="1" parent="WIyWlLk6GJQsqaUBKTNV-1" source="6fEqxgRCDidKm28uenut-14" target="WIyWlLk6GJQsqaUBKTNV-3">
          <mxGeometry relative="1" as="geometry" />
        </mxCell>
        <mxCell id="6fEqxgRCDidKm28uenut-16" value="Push commit with changes&lt;br&gt;&amp;nbsp;to main branch" style="edgeLabel;html=1;align=center;verticalAlign=middle;resizable=0;points=[];" vertex="1" connectable="0" parent="6fEqxgRCDidKm28uenut-15">
          <mxGeometry x="-0.1158" y="2" relative="1" as="geometry">
            <mxPoint as="offset" />
          </mxGeometry>
        </mxCell>
        <mxCell id="6fEqxgRCDidKm28uenut-14" value="Dev&lt;br&gt;" style="shape=umlActor;verticalLabelPosition=bottom;verticalAlign=top;html=1;outlineConnect=0;" vertex="1" parent="WIyWlLk6GJQsqaUBKTNV-1">
          <mxGeometry x="50" y="165" width="40" height="70" as="geometry" />
        </mxCell>
        <mxCell id="6fEqxgRCDidKm28uenut-27" style="edgeStyle=orthogonalEdgeStyle;rounded=0;orthogonalLoop=1;jettySize=auto;html=1;entryX=0;entryY=0.5;entryDx=0;entryDy=0;" edge="1" parent="WIyWlLk6GJQsqaUBKTNV-1" source="6fEqxgRCDidKm28uenut-24" target="6fEqxgRCDidKm28uenut-25">
          <mxGeometry relative="1" as="geometry" />
        </mxCell>
        <mxCell id="6fEqxgRCDidKm28uenut-24" value="Install" style="rounded=1;whiteSpace=wrap;html=1;" vertex="1" parent="WIyWlLk6GJQsqaUBKTNV-1">
          <mxGeometry x="490" y="75" width="90" height="60" as="geometry" />
        </mxCell>
        <mxCell id="6fEqxgRCDidKm28uenut-28" style="edgeStyle=orthogonalEdgeStyle;rounded=0;orthogonalLoop=1;jettySize=auto;html=1;" edge="1" parent="WIyWlLk6GJQsqaUBKTNV-1" source="6fEqxgRCDidKm28uenut-25" target="6fEqxgRCDidKm28uenut-26">
          <mxGeometry relative="1" as="geometry" />
        </mxCell>
        <mxCell id="6fEqxgRCDidKm28uenut-25" value="Lint" style="rounded=1;whiteSpace=wrap;html=1;" vertex="1" parent="WIyWlLk6GJQsqaUBKTNV-1">
          <mxGeometry x="625" y="75" width="95" height="60" as="geometry" />
        </mxCell>
        <mxCell id="6fEqxgRCDidKm28uenut-26" value="Test" style="rounded=1;whiteSpace=wrap;html=1;" vertex="1" parent="WIyWlLk6GJQsqaUBKTNV-1">
          <mxGeometry x="770" y="75" width="120" height="60" as="geometry" />
        </mxCell>
        <mxCell id="6fEqxgRCDidKm28uenut-38" style="edgeStyle=orthogonalEdgeStyle;rounded=0;orthogonalLoop=1;jettySize=auto;html=1;entryX=1;entryY=0.5;entryDx=0;entryDy=0;" edge="1" parent="WIyWlLk6GJQsqaUBKTNV-1" source="6fEqxgRCDidKm28uenut-10" target="6fEqxgRCDidKm28uenut-13">
          <mxGeometry relative="1" as="geometry">
            <Array as="points">
              <mxPoint x="1020" y="390" />
            </Array>
          </mxGeometry>
        </mxCell>
        <mxCell id="6fEqxgRCDidKm28uenut-39" value="Download&amp;nbsp; uploaded version" style="edgeLabel;html=1;align=center;verticalAlign=middle;resizable=0;points=[];" vertex="1" connectable="0" parent="6fEqxgRCDidKm28uenut-38">
          <mxGeometry x="-0.7" y="3" relative="1" as="geometry">
            <mxPoint x="-91" y="-3" as="offset" />
          </mxGeometry>
        </mxCell>
      </root>
    </mxGraphModel>
  </diagram>
</mxfile>
